<svg width="14" height="24" viewBox="0 0 14 24" fill="none" xmlns="http://www.w3.org/2000/svg">
<path d="M14 24H0V0H14V24Z" stroke="#E5E7EB"/>
<path d="M14 19H0V3H14V19Z" stroke="#E5E7EB"/>
<path d="M8 5.5C8 4.94687 7.55312 4.5 7 4.5C6.44688 4.5 6 4.94687 6 5.5V10H1.5C0.946875 10 0.5 10.4469 0.5 11C0.5 11.5531 0.946875 12 1.5 12H6V16.5C6 17.0531 6.44688 17.5 7 17.5C7.55312 17.5 8 17.0531 8 16.5V12H12.5C13.0531 12 13.5 11.5531 13.5 11C13.5 10.4469 13.0531 10 12.5 10H8V5.5Z" fill="#3B82F6"/>
</svg>
