<svg width="21" height="14" viewBox="0 0 21 14" fill="none" xmlns="http://www.w3.org/2000/svg">
<path d="M0 2.75C0 1.50898 1.00898 0.5 2.25 0.5H11.25C12.491 0.5 13.5 1.50898 13.5 2.75V11.75C13.5 12.991 12.491 14 11.25 14H2.25C1.00898 14 0 12.991 0 11.75V2.75ZM19.6559 1.75859C20.0215 1.95547 20.25 2.33516 20.25 2.75V11.75C20.25 12.1648 20.0215 12.5445 19.6559 12.7414C19.2902 12.9383 18.8473 12.9172 18.4992 12.6852L15.1242 10.4352L14.625 10.1012V9.5V5V4.39883L15.1242 4.06484L18.4992 1.81484C18.8438 1.58633 19.2867 1.56172 19.6559 1.75859Z" fill="#D1D5DB"/>
</svg>
