<svg width="22" height="28" viewBox="0 0 22 28" fill="none" xmlns="http://www.w3.org/2000/svg">
<path d="M21.125 28H0.875V0H21.125V28Z" stroke="#E5E7EB"/>
<g clip-path="url(#clip0_6_1548)">
<path d="M11.7383 7.97656C12.1391 7.73047 12.4062 7.28398 12.4062 6.78125C12.4062 6.0043 11.777 5.375 11 5.375C10.223 5.375 9.59375 6.0043 9.59375 6.78125C9.59375 7.2875 9.86094 7.73047 10.2617 7.97656L8.24727 12.0055C7.92734 12.6453 7.09766 12.8281 6.53867 12.3816L3.40625 9.875C3.58203 9.63945 3.6875 9.34766 3.6875 9.03125C3.6875 8.2543 3.0582 7.625 2.28125 7.625C1.5043 7.625 0.875 8.2543 0.875 9.03125C0.875 9.8082 1.5043 10.4375 2.28125 10.4375C2.28828 10.4375 2.29883 10.4375 2.30586 10.4375L3.9125 19.2758C4.10586 20.3445 5.0375 21.125 6.12734 21.125H15.8727C16.959 21.125 17.8906 20.348 18.0875 19.2758L19.6941 10.4375C19.7012 10.4375 19.7117 10.4375 19.7188 10.4375C20.4957 10.4375 21.125 9.8082 21.125 9.03125C21.125 8.2543 20.4957 7.625 19.7188 7.625C18.9418 7.625 18.3125 8.2543 18.3125 9.03125C18.3125 9.34766 18.418 9.63945 18.5938 9.875L15.4613 12.3816C14.9023 12.8281 14.0727 12.6453 13.7527 12.0055L11.7383 7.97656Z" fill="white"/>
</g>
<defs>
<clipPath id="clip0_6_1548">
<path d="M0.875 4.25H21.125V22.25H0.875V4.25Z" fill="white"/>
</clipPath>
</defs>
</svg>
