<svg width="22" height="28" viewBox="0 0 22 28" fill="none" xmlns="http://www.w3.org/2000/svg">
<path d="M21.125 28H0.875V0H21.125V28Z" stroke="#E5E7EB"/>
<g clip-path="url(#clip0_6_1264)">
<path d="M3.125 6.5C1.88398 6.5 0.875 7.50898 0.875 8.75V11C0.875 11.3094 1.13516 11.552 1.42695 11.6539C2.08789 11.8824 2.5625 12.5117 2.5625 13.25C2.5625 13.9883 2.08789 14.6176 1.42695 14.8461C1.13516 14.948 0.875 15.1906 0.875 15.5V17.75C0.875 18.991 1.88398 20 3.125 20H18.875C20.116 20 21.125 18.991 21.125 17.75V15.5C21.125 15.1906 20.8648 14.948 20.573 14.8461C19.9121 14.6176 19.4375 13.9883 19.4375 13.25C19.4375 12.5117 19.9121 11.8824 20.573 11.6539C20.8648 11.552 21.125 11.3094 21.125 11V8.75C21.125 7.50898 20.116 6.5 18.875 6.5H3.125ZM5.375 10.4375V16.0625C5.375 16.3719 5.62813 16.625 5.9375 16.625H16.0625C16.3719 16.625 16.625 16.3719 16.625 16.0625V10.4375C16.625 10.1281 16.3719 9.875 16.0625 9.875H5.9375C5.62813 9.875 5.375 10.1281 5.375 10.4375ZM4.25 9.875C4.25 9.25273 4.75273 8.75 5.375 8.75H16.625C17.2473 8.75 17.75 9.25273 17.75 9.875V16.625C17.75 17.2473 17.2473 17.75 16.625 17.75H5.375C4.75273 17.75 4.25 17.2473 4.25 16.625V9.875Z" fill="#2563EB"/>
</g>
<defs>
<clipPath id="clip0_6_1264">
<path d="M0.875 4.25H21.125V22.25H0.875V4.25Z" fill="white"/>
</clipPath>
</defs>
</svg>
