<svg width="15" height="15" viewBox="0 0 15 15" fill="none" xmlns="http://www.w3.org/2000/svg">
<g clip-path="url(#clip0_6_1937)">
<path d="M13.2547 1.34341C12.6559 0.74458 11.6879 0.74458 11.0891 1.34341L10.266 2.16372L12.943 4.84067L13.766 4.01763C14.3648 3.4188 14.3648 2.45083 13.766 1.852L13.2547 1.34341ZM5.07344 7.35903C4.90664 7.52583 4.77812 7.73091 4.7043 7.95786L3.89492 10.386C3.81562 10.6211 3.87852 10.8809 4.05352 11.0586C4.22852 11.2364 4.48828 11.2965 4.72617 11.2172L7.1543 10.4079C7.37852 10.334 7.58359 10.2055 7.75312 10.0387L12.3277 5.46138L9.64805 2.78169L5.07344 7.35903ZM2.98437 2.50005C1.53516 2.50005 0.359375 3.67583 0.359375 5.12505V12.125C0.359375 13.5743 1.53516 14.75 2.98437 14.75H9.98437C11.4336 14.75 12.6094 13.5743 12.6094 12.125V9.50005C12.6094 9.01606 12.2184 8.62505 11.7344 8.62505C11.2504 8.62505 10.8594 9.01606 10.8594 9.50005V12.125C10.8594 12.609 10.4684 13 9.98437 13H2.98437C2.50039 13 2.10937 12.609 2.10937 12.125V5.12505C2.10937 4.64106 2.50039 4.25005 2.98437 4.25005H5.60937C6.09336 4.25005 6.48437 3.85903 6.48437 3.37505C6.48437 2.89106 6.09336 2.50005 5.60937 2.50005H2.98437Z" fill="#F59E0B"/>
</g>
<defs>
<clipPath id="clip0_6_1937">
<path d="M0.359375 0.75H14.3594V14.75H0.359375V0.75Z" fill="white"/>
</clipPath>
</defs>
</svg>
