<svg width="13" height="15" viewBox="0 0 13 15" fill="none" xmlns="http://www.w3.org/2000/svg">
<g clip-path="url(#clip0_6_1940)">
<path d="M4.05625 1.23398L3.85938 1.625H1.23438C0.750391 1.625 0.359375 2.01602 0.359375 2.5C0.359375 2.98398 0.750391 3.375 1.23438 3.375H11.7344C12.2184 3.375 12.6094 2.98398 12.6094 2.5C12.6094 2.01602 12.2184 1.625 11.7344 1.625H9.10938L8.9125 1.23398C8.76484 0.935938 8.46133 0.75 8.13047 0.75H4.83828C4.50742 0.75 4.20391 0.935938 4.05625 1.23398ZM11.7344 4.25H1.23438L1.81406 13.5195C1.85781 14.2113 2.43203 14.75 3.12383 14.75H9.84492C10.5367 14.75 11.1109 14.2113 11.1547 13.5195L11.7344 4.25Z" fill="#EF4444"/>
</g>
<defs>
<clipPath id="clip0_6_1940">
<path d="M0.359375 0.75H12.6094V14.75H0.359375V0.75Z" fill="white"/>
</clipPath>
</defs>
</svg>
