<svg width="21" height="14" viewBox="0 0 21 14" fill="none" xmlns="http://www.w3.org/2000/svg">
<path d="M2.25 0.5C1.00898 0.5 0 1.50898 0 2.75V5C0 5.30937 0.260156 5.55195 0.551953 5.65391C1.21289 5.88242 1.6875 6.51172 1.6875 7.25C1.6875 7.98828 1.21289 8.61758 0.551953 8.84609C0.260156 8.94805 0 9.19063 0 9.5V11.75C0 12.991 1.00898 14 2.25 14H18C19.241 14 20.25 12.991 20.25 11.75V9.5C20.25 9.19063 19.9898 8.94805 19.698 8.84609C19.0371 8.61758 18.5625 7.98828 18.5625 7.25C18.5625 6.51172 19.0371 5.88242 19.698 5.65391C19.9898 5.55195 20.25 5.30937 20.25 5V2.75C20.25 1.50898 19.241 0.5 18 0.5H2.25ZM4.5 4.4375V10.0625C4.5 10.3719 4.75313 10.625 5.0625 10.625H15.1875C15.4969 10.625 15.75 10.3719 15.75 10.0625V4.4375C15.75 4.12812 15.4969 3.875 15.1875 3.875H5.0625C4.75313 3.875 4.5 4.12812 4.5 4.4375ZM3.375 3.875C3.375 3.25273 3.87773 2.75 4.5 2.75H15.75C16.3723 2.75 16.875 3.25273 16.875 3.875V10.625C16.875 11.2473 16.3723 11.75 15.75 11.75H4.5C3.87773 11.75 3.375 11.2473 3.375 10.625V3.875Z" fill="#D1D5DB"/>
</svg>
