<svg width="36" height="23" viewBox="0 0 36 23" fill="none" xmlns="http://www.w3.org/2000/svg">
<path d="M3.28059 0.634105C1.46877 0.670336 0.0293708 2.16848 0.0656016 3.9803L0.131203 7.2609C0.14328 7.86484 0.642661 8.34464 1.2466 8.33256C3.05842 8.29633 4.55657 9.73573 4.5928 11.5476C4.62903 13.3594 3.18963 14.8575 1.37781 14.8937C0.773864 14.9058 0.294064 15.4052 0.306141 16.0091L0.371743 19.2897C0.407973 21.1016 1.90612 22.541 3.71794 22.5047L32.1498 21.9362C33.9616 21.9 35.401 20.4018 35.3647 18.59L35.2991 15.3094C35.2871 14.7055 34.7877 14.2257 34.1837 14.2377C32.3719 14.274 30.8738 12.8346 30.8376 11.0227C30.8013 9.21092 32.2407 7.71277 34.0525 7.67654C34.6565 7.66447 35.1363 7.16509 35.1242 6.56114L35.0586 3.28055C35.0224 1.46873 33.5242 0.0293272 31.7124 0.065558L3.28059 0.634105Z" fill="#2563EB"/>
</svg>
