<svg width="32" height="40" viewBox="0 0 32 40" fill="none" xmlns="http://www.w3.org/2000/svg">
<path d="M32 40H0V0H32V40Z" stroke="#E5E7EB"/>
<path d="M24 29H8V10H24V29Z" stroke="#E5E7EB"/>
<path d="M24 27H8V11H24V27Z" stroke="#E5E7EB"/>
<path d="M8.12183 12.7156C8.32808 12.2781 8.76558 12 9.24996 12H22.75C23.2343 12 23.6718 12.2781 23.8781 12.7156C24.0843 13.1531 24.0218 13.6688 23.7156 14.0438L18 21.0281V25C18 25.3781 17.7875 25.725 17.4468 25.8938C17.1062 26.0625 16.7031 26.0281 16.4 25.8L14.4 24.3C14.1468 24.1125 14 23.8156 14 23.5V21.0281L8.28121 14.0406C7.97808 13.6688 7.91246 13.15 8.12183 12.7156Z" fill="#64748B"/>
</svg>
