<svg width="17" height="16" viewBox="0 0 17 16" fill="none" xmlns="http://www.w3.org/2000/svg">
<g clip-path="url(#clip0_6_214)">
<path d="M7.45 3.30938L11.2875 7.14687C11.5125 7.37187 11.6406 7.68125 11.6406 8C11.6406 8.31875 11.5125 8.62812 11.2875 8.85312L7.45 12.6906C7.25 12.8906 6.98125 13 6.7 13C6.11562 13 5.64062 12.525 5.64062 11.9406V10H1.64062C1.0875 10 0.640625 9.55313 0.640625 9V7C0.640625 6.44688 1.0875 6 1.64062 6H5.64062V4.05937C5.64062 3.475 6.11562 3 6.7 3C6.98125 3 7.25 3.1125 7.45 3.30938ZM11.6406 13H13.6406C14.1938 13 14.6406 12.5531 14.6406 12V4C14.6406 3.44688 14.1938 3 13.6406 3H11.6406C11.0875 3 10.6406 2.55313 10.6406 2C10.6406 1.44687 11.0875 1 11.6406 1H13.6406C15.2969 1 16.6406 2.34375 16.6406 4V12C16.6406 13.6562 15.2969 15 13.6406 15H11.6406C11.0875 15 10.6406 14.5531 10.6406 14C10.6406 13.4469 11.0875 13 11.6406 13Z" fill="white"/>
</g>
<defs>
<clipPath id="clip0_6_214">
<path d="M0.640625 0H16.6406V16H0.640625V0Z" fill="white"/>
</clipPath>
</defs>
</svg>
