<svg width="24" height="28" viewBox="0 0 24 28" fill="none" xmlns="http://www.w3.org/2000/svg">
<path d="M24 28H0V0H24V28Z" stroke="#E5E7EB"/>
<g clip-path="url(#clip0_6_1163)">
<path d="M2.63672 6.88672L1.44141 5.69141C0.910547 5.16055 0 5.53672 0 6.28555V10.1562C0 10.6238 0.376172 11 0.84375 11H4.71445C5.4668 11 5.84297 10.0895 5.31211 9.55859L4.2293 8.47578C5.44922 7.25586 7.13672 6.5 9 6.5C12.7266 6.5 15.75 9.52344 15.75 13.25C15.75 16.9766 12.7266 20 9 20C7.56563 20 6.23672 19.5535 5.14336 18.7906C4.63359 18.4355 3.93398 18.5586 3.57539 19.0684C3.2168 19.5781 3.34336 20.2777 3.85312 20.6363C5.31562 21.6523 7.09102 22.25 9 22.25C13.9711 22.25 18 18.2211 18 13.25C18 8.27891 13.9711 4.25 9 4.25C6.51445 4.25 4.26445 5.25898 2.63672 6.88672ZM9 8.75C8.53242 8.75 8.15625 9.12617 8.15625 9.59375V13.25C8.15625 13.475 8.24414 13.6895 8.40234 13.8477L10.9336 16.3789C11.2641 16.7094 11.7984 16.7094 12.1254 16.3789C12.4523 16.0484 12.4559 15.5141 12.1254 15.1871L9.84023 12.902V9.59375C9.84023 9.12617 9.46406 8.75 8.99648 8.75H9Z" fill="#D1D5DB"/>
</g>
<defs>
<clipPath id="clip0_6_1163">
<path d="M0 4.25H18V22.25H0V4.25Z" fill="white"/>
</clipPath>
</defs>
</svg>
