<svg width="40" height="40" viewBox="0 0 40 40" fill="none" xmlns="http://www.w3.org/2000/svg">
<path d="M32 0C36.4183 0 40 3.58172 40 8V32C40 36.4183 36.4183 40 32 40H8C3.58172 40 0 36.4183 0 32V8C0 3.58172 3.58172 0 8 0H32Z" fill="#3B82F6"/>
<path d="M32 0C36.4183 0 40 3.58172 40 8V32C40 36.4183 36.4183 40 32 40H8C3.58172 40 0 36.4183 0 32V8C0 3.58172 3.58172 0 8 0H32Z" stroke="#E5E7EB"/>
<path d="M29 34H11V6H29V34Z" stroke="#E5E7EB"/>
<path d="M29 28.25H11V10.25H29V28.25Z" stroke="#E5E7EB"/>
<path d="M11 13.625C11 12.384 12.009 11.375 13.25 11.375H26.75C27.991 11.375 29 12.384 29 13.625V24.875C29 26.116 27.991 27.125 26.75 27.125H13.25C12.009 27.125 11 26.116 11 24.875V13.625ZM12.6875 23.1875V24.3125C12.6875 24.6219 12.9406 24.875 13.25 24.875H14.375C14.6844 24.875 14.9375 24.6219 14.9375 24.3125V23.1875C14.9375 22.8781 14.6844 22.625 14.375 22.625H13.25C12.9406 22.625 12.6875 22.8781 12.6875 23.1875ZM25.625 22.625C25.3156 22.625 25.0625 22.8781 25.0625 23.1875V24.3125C25.0625 24.6219 25.3156 24.875 25.625 24.875H26.75C27.0594 24.875 27.3125 24.6219 27.3125 24.3125V23.1875C27.3125 22.8781 27.0594 22.625 26.75 22.625H25.625ZM12.6875 18.6875V19.8125C12.6875 20.1219 12.9406 20.375 13.25 20.375H14.375C14.6844 20.375 14.9375 20.1219 14.9375 19.8125V18.6875C14.9375 18.3781 14.6844 18.125 14.375 18.125H13.25C12.9406 18.125 12.6875 18.3781 12.6875 18.6875ZM25.625 18.125C25.3156 18.125 25.0625 18.3781 25.0625 18.6875V19.8125C25.0625 20.1219 25.3156 20.375 25.625 20.375H26.75C27.0594 20.375 27.3125 20.1219 27.3125 19.8125V18.6875C27.3125 18.3781 27.0594 18.125 26.75 18.125H25.625ZM12.6875 14.1875V15.3125C12.6875 15.6219 12.9406 15.875 13.25 15.875H14.375C14.6844 15.875 14.9375 15.6219 14.9375 15.3125V14.1875C14.9375 13.8781 14.6844 13.625 14.375 13.625H13.25C12.9406 13.625 12.6875 13.8781 12.6875 14.1875ZM25.625 13.625C25.3156 13.625 25.0625 13.8781 25.0625 14.1875V15.3125C25.0625 15.6219 25.3156 15.875 25.625 15.875H26.75C27.0594 15.875 27.3125 15.6219 27.3125 15.3125V14.1875C27.3125 13.8781 27.0594 13.625 26.75 13.625H25.625ZM16.625 14.75V17C16.625 17.6223 17.1277 18.125 17.75 18.125H22.25C22.8723 18.125 23.375 17.6223 23.375 17V14.75C23.375 14.1277 22.8723 13.625 22.25 13.625H17.75C17.1277 13.625 16.625 14.1277 16.625 14.75ZM17.75 20.375C17.1277 20.375 16.625 20.8777 16.625 21.5V23.75C16.625 24.3723 17.1277 24.875 17.75 24.875H22.25C22.8723 24.875 23.375 24.3723 23.375 23.75V21.5C23.375 20.8777 22.8723 20.375 22.25 20.375H17.75Z" fill="white"/>
</svg>
