<svg width="18" height="19" viewBox="0 0 18 19" fill="none" xmlns="http://www.w3.org/2000/svg">
<g clip-path="url(#clip0_6_1815)">
<path d="M2.25 0.25C1.62773 0.25 1.125 0.752734 1.125 1.375V3.625C1.125 4.24727 1.62773 4.75 2.25 4.75H5.0625V5.875H3.05859C1.94766 5.875 1.00195 6.68711 0.833203 7.7875L0.0386719 13.0504C0.0140625 13.2156 0 13.3844 0 13.5531V16C0 17.241 1.00898 18.25 2.25 18.25H15.75C16.991 18.25 18 17.241 18 16V13.5531C18 13.3844 17.9859 13.2156 17.9613 13.0469L17.1633 7.7875C16.998 6.68711 16.0523 5.875 14.9414 5.875H7.3125V4.75H10.125C10.7473 4.75 11.25 4.24727 11.25 3.625V1.375C11.25 0.752734 10.7473 0.25 10.125 0.25H2.25ZM3.375 1.9375H9C9.30937 1.9375 9.5625 2.19062 9.5625 2.5C9.5625 2.80938 9.30937 3.0625 9 3.0625H3.375C3.06562 3.0625 2.8125 2.80938 2.8125 2.5C2.8125 2.19062 3.06562 1.9375 3.375 1.9375ZM2.25 15.4375C2.25 15.1281 2.50312 14.875 2.8125 14.875H15.1875C15.4969 14.875 15.75 15.1281 15.75 15.4375C15.75 15.7469 15.4969 16 15.1875 16H2.8125C2.50312 16 2.25 15.7469 2.25 15.4375ZM3.9375 9.53125C3.71372 9.53125 3.49911 9.44236 3.34088 9.28412C3.18264 9.12589 3.09375 8.91128 3.09375 8.6875C3.09375 8.46372 3.18264 8.24911 3.34088 8.09088C3.49911 7.93264 3.71372 7.84375 3.9375 7.84375C4.16128 7.84375 4.37589 7.93264 4.53412 8.09088C4.69236 8.24911 4.78125 8.46372 4.78125 8.6875C4.78125 8.91128 4.69236 9.12589 4.53412 9.28412C4.37589 9.44236 4.16128 9.53125 3.9375 9.53125ZM8.15625 8.6875C8.15625 8.91128 8.06736 9.12589 7.90912 9.28412C7.75089 9.44236 7.53628 9.53125 7.3125 9.53125C7.08872 9.53125 6.87411 9.44236 6.71588 9.28412C6.55764 9.12589 6.46875 8.91128 6.46875 8.6875C6.46875 8.46372 6.55764 8.24911 6.71588 8.09088C6.87411 7.93264 7.08872 7.84375 7.3125 7.84375C7.53628 7.84375 7.75089 7.93264 7.90912 8.09088C8.06736 8.24911 8.15625 8.46372 8.15625 8.6875ZM5.625 12.3438C5.40122 12.3438 5.18661 12.2549 5.02838 12.0966C4.87014 11.9384 4.78125 11.7238 4.78125 11.5C4.78125 11.2762 4.87014 11.0616 5.02838 10.9034C5.18661 10.7451 5.40122 10.6562 5.625 10.6562C5.84878 10.6562 6.06339 10.7451 6.22162 10.9034C6.37986 11.0616 6.46875 11.2762 6.46875 11.5C6.46875 11.7238 6.37986 11.9384 6.22162 12.0966C6.06339 12.2549 5.84878 12.3438 5.625 12.3438ZM11.5312 8.6875C11.5312 8.91128 11.4424 9.12589 11.2841 9.28412C11.1259 9.44236 10.9113 9.53125 10.6875 9.53125C10.4637 9.53125 10.2491 9.44236 10.0909 9.28412C9.93264 9.12589 9.84375 8.91128 9.84375 8.6875C9.84375 8.46372 9.93264 8.24911 10.0909 8.09088C10.2491 7.93264 10.4637 7.84375 10.6875 7.84375C10.9113 7.84375 11.1259 7.93264 11.2841 8.09088C11.4424 8.24911 11.5312 8.46372 11.5312 8.6875ZM9 12.3438C8.77622 12.3438 8.56161 12.2549 8.40338 12.0966C8.24514 11.9384 8.15625 11.7238 8.15625 11.5C8.15625 11.2762 8.24514 11.0616 8.40338 10.9034C8.56161 10.7451 8.77622 10.6562 9 10.6562C9.22378 10.6562 9.43839 10.7451 9.59662 10.9034C9.75486 11.0616 9.84375 11.2762 9.84375 11.5C9.84375 11.7238 9.75486 11.9384 9.59662 12.0966C9.43839 12.2549 9.22378 12.3438 9 12.3438ZM14.9062 8.6875C14.9062 8.7983 14.8844 8.90802 14.842 9.01039C14.7996 9.11276 14.7375 9.20577 14.6591 9.28412C14.5808 9.36247 14.4878 9.42462 14.3854 9.46702C14.283 9.50943 14.1733 9.53125 14.0625 9.53125C13.9517 9.53125 13.842 9.50943 13.7396 9.46702C13.6372 9.42462 13.5442 9.36247 13.4659 9.28412C13.3875 9.20577 13.3254 9.11276 13.283 9.01039C13.2406 8.90802 13.2188 8.7983 13.2188 8.6875C13.2188 8.5767 13.2406 8.46698 13.283 8.36461C13.3254 8.26224 13.3875 8.16923 13.4659 8.09088C13.5442 8.01253 13.6372 7.95038 13.7396 7.90798C13.842 7.86557 13.9517 7.84375 14.0625 7.84375C14.1733 7.84375 14.283 7.86557 14.3854 7.90798C14.4878 7.95038 14.5808 8.01253 14.6591 8.09088C14.7375 8.16923 14.7996 8.26224 14.842 8.36461C14.8844 8.46698 14.9062 8.5767 14.9062 8.6875ZM12.375 12.3438C12.1512 12.3438 11.9366 12.2549 11.7784 12.0966C11.6201 11.9384 11.5312 11.7238 11.5312 11.5C11.5312 11.2762 11.6201 11.0616 11.7784 10.9034C11.9366 10.7451 12.1512 10.6562 12.375 10.6562C12.5988 10.6562 12.8134 10.7451 12.9716 10.9034C13.1299 11.0616 13.2188 11.2762 13.2188 11.5C13.2188 11.7238 13.1299 11.9384 12.9716 12.0966C12.8134 12.2549 12.5988 12.3438 12.375 12.3438Z" fill="white"/>
</g>
<defs>
<clipPath id="clip0_6_1815">
<path d="M0 0.25H18V18.25H0V0.25Z" fill="white"/>
</clipPath>
</defs>
</svg>
