<svg width="12" height="28" viewBox="0 0 12 28" fill="none" xmlns="http://www.w3.org/2000/svg">
<path d="M11.625 28H0.375V0H11.625V28Z" stroke="#E5E7EB"/>
<g clip-path="url(#clip0_6_1259)">
<path d="M6.00005 4.25C6.62232 4.25 7.12505 4.75273 7.12505 5.375V6.63008C7.1813 6.63711 7.23404 6.64414 7.29029 6.65469C7.30435 6.6582 7.31489 6.6582 7.32896 6.66172L9.01646 6.97109C9.62818 7.08359 10.0325 7.6707 9.91997 8.27891C9.80747 8.88711 9.22036 9.29492 8.61216 9.18242L6.94224 8.87656C5.84185 8.71484 4.87154 8.82383 4.1895 9.09453C3.50747 9.36523 3.23325 9.73789 3.16997 10.0824C3.09966 10.4586 3.15239 10.6695 3.21216 10.7996C3.27544 10.9367 3.40552 11.0914 3.66216 11.2637C4.23521 11.6398 5.11411 11.8859 6.25318 12.1883L6.35513 12.2164C7.3606 12.4836 8.59107 12.807 9.50513 13.4047C10.0043 13.7316 10.4754 14.1746 10.7672 14.7934C11.0661 15.4227 11.1293 16.1258 10.9922 16.8746C10.7497 18.2105 9.82857 19.1035 8.68599 19.5711C8.20435 19.768 7.68052 19.8945 7.12505 19.9578V21.125C7.12505 21.7473 6.62232 22.25 6.00005 22.25C5.37779 22.25 4.87505 21.7473 4.87505 21.125V19.898C4.86099 19.8945 4.84341 19.8945 4.82935 19.891H4.82232C3.9645 19.7574 2.55474 19.3883 1.60552 18.9664C1.0395 18.7133 0.782863 18.0488 1.03599 17.4828C1.28911 16.9168 1.95357 16.6602 2.51958 16.9133C3.25435 17.2402 4.46372 17.5637 5.16333 17.6727C6.28482 17.8379 7.20943 17.743 7.83521 17.4863C8.42935 17.2437 8.70005 16.8922 8.77739 16.4703C8.84419 16.0977 8.79146 15.8832 8.73169 15.7531C8.66489 15.6125 8.53482 15.4578 8.27466 15.2855C7.6981 14.9094 6.81568 14.6633 5.6731 14.3609L5.57466 14.3363C4.57271 14.0691 3.34224 13.7422 2.42818 13.1445C1.92896 12.8176 1.46138 12.3711 1.16958 11.7523C0.87427 11.123 0.814504 10.4199 0.955129 9.67109C1.20825 8.32812 2.21372 7.45625 3.3563 7.00273C3.82388 6.81641 4.33716 6.68984 4.87505 6.61602V5.375C4.87505 4.75273 5.37779 4.25 6.00005 4.25Z" fill="#16A34A"/>
</g>
<defs>
<clipPath id="clip0_6_1259">
<path d="M0.375 4.25H11.625V22.25H0.375V4.25Z" fill="white"/>
</clipPath>
</defs>
</svg>
