<svg width="42" height="36" viewBox="0 0 42 36" fill="none" xmlns="http://www.w3.org/2000/svg">
<path d="M18.9939 1.62966C20.0803 0.470781 21.9199 0.470774 23.0063 1.62966L40.4575 20.2443C42.1041 22.0006 40.8587 24.8751 38.4513 24.8751H30.6251V33.1251C30.6251 34.6439 29.3939 35.8751 27.8751 35.8751H14.1251C12.6063 35.8751 11.3751 34.6439 11.3751 33.1251V24.8751H3.54891C1.14145 24.8751 -0.103878 22.0006 1.54268 20.2443L18.9939 1.62966ZM38.4513 22.1251L21.0001 3.5105L3.54891 22.1251H11.3751C12.8939 22.1251 14.1251 23.3563 14.1251 24.8751V33.1251H27.8751V24.8751C27.8751 23.3563 29.1063 22.1251 30.6251 22.1251L38.4513 22.1251Z" fill="#16A34A"/>
</svg>
