<svg width="18" height="17" viewBox="0 0 18 17" fill="none" xmlns="http://www.w3.org/2000/svg">
<path d="M2.25 1.5C2.25 0.877734 1.74727 0.375 1.125 0.375C0.502734 0.375 0 0.877734 0 1.5V13.3125C0 14.8664 1.25859 16.125 2.8125 16.125H16.875C17.4973 16.125 18 15.6223 18 15C18 14.3777 17.4973 13.875 16.875 13.875H2.8125C2.50312 13.875 2.25 13.6219 2.25 13.3125V1.5ZM16.5445 4.54453C16.984 4.10508 16.984 3.39141 16.5445 2.95195C16.1051 2.5125 15.3914 2.5125 14.952 2.95195L11.25 6.65742L9.23203 4.63945C8.79258 4.2 8.07891 4.2 7.63945 4.63945L3.70195 8.57695C3.2625 9.01641 3.2625 9.73008 3.70195 10.1695C4.14141 10.609 4.85508 10.609 5.29453 10.1695L8.4375 7.03008L10.4555 9.04805C10.8949 9.4875 11.6086 9.4875 12.048 9.04805L16.548 4.54805L16.5445 4.54453Z" fill="#D1D5DB"/>
</svg>
