<svg width="21" height="19" viewBox="0 0 21 19" fill="none" xmlns="http://www.w3.org/2000/svg">
<g clip-path="url(#clip0_6_1194)">
<path d="M10.8633 3.97656C11.2641 3.73047 11.5312 3.28398 11.5312 2.78125C11.5312 2.0043 10.902 1.375 10.125 1.375C9.34805 1.375 8.71875 2.0043 8.71875 2.78125C8.71875 3.2875 8.98594 3.73047 9.38672 3.97656L7.37227 8.00547C7.05234 8.64531 6.22266 8.82812 5.66367 8.38164L2.53125 5.875C2.70703 5.63945 2.8125 5.34766 2.8125 5.03125C2.8125 4.2543 2.1832 3.625 1.40625 3.625C0.629297 3.625 0 4.2543 0 5.03125C0 5.8082 0.629297 6.4375 1.40625 6.4375C1.41328 6.4375 1.42383 6.4375 1.43086 6.4375L3.0375 15.2758C3.23086 16.3445 4.1625 17.125 5.25234 17.125H14.9977C16.084 17.125 17.0156 16.348 17.2125 15.2758L18.8191 6.4375C18.8262 6.4375 18.8367 6.4375 18.8438 6.4375C19.6207 6.4375 20.25 5.8082 20.25 5.03125C20.25 4.2543 19.6207 3.625 18.8438 3.625C18.0668 3.625 17.4375 4.2543 17.4375 5.03125C17.4375 5.34766 17.543 5.63945 17.7188 5.875L14.5863 8.38164C14.0273 8.82812 13.1977 8.64531 12.8777 8.00547L10.8633 3.97656Z" fill="#D1D5DB"/>
</g>
<defs>
<clipPath id="clip0_6_1194">
<path d="M0 0.25H20.25V18.25H0V0.25Z" fill="white"/>
</clipPath>
</defs>
</svg>
