<svg width="16" height="15" viewBox="0 0 16 15" fill="none" xmlns="http://www.w3.org/2000/svg">
<g clip-path="url(#clip0_6_1347)">
<path d="M8.57422 3.64844C8.88594 3.45703 9.09375 3.10977 9.09375 2.71875C9.09375 2.11445 8.6043 1.625 8 1.625C7.3957 1.625 6.90625 2.11445 6.90625 2.71875C6.90625 3.1125 7.11406 3.45703 7.42578 3.64844L5.85898 6.78203C5.61016 7.27969 4.96484 7.42188 4.53008 7.07461L2.09375 5.125C2.23047 4.9418 2.3125 4.71484 2.3125 4.46875C2.3125 3.86445 1.82305 3.375 1.21875 3.375C0.614453 3.375 0.125 3.86445 0.125 4.46875C0.125 5.07305 0.614453 5.5625 1.21875 5.5625C1.22422 5.5625 1.23242 5.5625 1.23789 5.5625L2.4875 12.4367C2.63789 13.268 3.3625 13.875 4.21016 13.875H11.7898C12.6348 13.875 13.3594 13.2707 13.5125 12.4367L14.7621 5.5625C14.7676 5.5625 14.7758 5.5625 14.7812 5.5625C15.3855 5.5625 15.875 5.07305 15.875 4.46875C15.875 3.86445 15.3855 3.375 14.7812 3.375C14.177 3.375 13.6875 3.86445 13.6875 4.46875C13.6875 4.71484 13.7695 4.9418 13.9062 5.125L11.4699 7.07461C11.0352 7.42188 10.3898 7.27969 10.141 6.78203L8.57422 3.64844Z" fill="#16A34A"/>
</g>
<defs>
<clipPath id="clip0_6_1347">
<path d="M0.125 0.75H15.875V14.75H0.125V0.75Z" fill="white"/>
</clipPath>
</defs>
</svg>
