<svg width="15" height="16" viewBox="0 0 15 16" fill="none" xmlns="http://www.w3.org/2000/svg">
<g clip-path="url(#clip0_6_1801)">
<path d="M8.01562 2.5C8.01562 1.94687 7.56875 1.5 7.01562 1.5C6.4625 1.5 6.01562 1.94687 6.01562 2.5V7H1.51562C0.9625 7 0.515625 7.44688 0.515625 8C0.515625 8.55312 0.9625 9 1.51562 9H6.01562V13.5C6.01562 14.0531 6.4625 14.5 7.01562 14.5C7.56875 14.5 8.01562 14.0531 8.01562 13.5V9H12.5156C13.0688 9 13.5156 8.55312 13.5156 8C13.5156 7.44688 13.0688 7 12.5156 7H8.01562V2.5Z" fill="white"/>
</g>
<defs>
<clipPath id="clip0_6_1801">
<path d="M0.015625 0H14.0156V16H0.015625V0Z" fill="white"/>
</clipPath>
</defs>
</svg>
