<svg width="17" height="15" viewBox="0 0 17 15" fill="none" xmlns="http://www.w3.org/2000/svg">
<g clip-path="url(#clip0_6_1934)">
<path d="M8.48442 1.625C6.27505 1.625 4.50591 2.63125 3.21802 3.82891C1.93833 5.01562 1.08247 6.4375 0.677783 7.41367C0.587549 7.62969 0.587549 7.87031 0.677783 8.08633C1.08247 9.0625 1.93833 10.4844 3.21802 11.6711C4.50591 12.8687 6.27505 13.875 8.48442 13.875C10.6938 13.875 12.4629 12.8687 13.7508 11.6711C15.0305 10.4816 15.8864 9.0625 16.2938 8.08633C16.384 7.87031 16.384 7.62969 16.2938 7.41367C15.8864 6.4375 15.0305 5.01562 13.7508 3.82891C12.4629 2.63125 10.6938 1.625 8.48442 1.625ZM4.54692 7.75C4.54692 6.70571 4.96177 5.70419 5.70019 4.96577C6.43862 4.22734 7.44013 3.8125 8.48442 3.8125C9.52871 3.8125 10.5302 4.22734 11.2687 4.96577C12.0071 5.70419 12.4219 6.70571 12.4219 7.75C12.4219 8.79429 12.0071 9.79581 11.2687 10.5342C10.5302 11.2727 9.52871 11.6875 8.48442 11.6875C7.44013 11.6875 6.43862 11.2727 5.70019 10.5342C4.96177 9.79581 4.54692 8.79429 4.54692 7.75ZM8.48442 6C8.48442 6.96523 7.69966 7.75 6.73442 7.75C6.54028 7.75 6.35435 7.71719 6.17935 7.65977C6.02895 7.61055 5.85396 7.70352 5.85942 7.86211C5.86763 8.05078 5.89497 8.23945 5.94692 8.42812C6.32153 9.82812 7.76255 10.6594 9.16255 10.2848C10.5625 9.91016 11.3938 8.46914 11.0192 7.06914C10.7157 5.93438 9.71216 5.17148 8.59653 5.125C8.43794 5.11953 8.34497 5.2918 8.39419 5.44492C8.45161 5.61992 8.48442 5.80586 8.48442 6Z" fill="#3B82F6"/>
</g>
<defs>
<clipPath id="clip0_6_1934">
<path d="M0.609375 0.75H16.3594V14.75H0.609375V0.75Z" fill="white"/>
</clipPath>
</defs>
</svg>
